<?xml version="1.0" encoding="UTF-8" standalone="no"?>
<!-- Created with Inkscape (http://www.inkscape.org/) -->

<svg
   width="19.746389mm"
   height="17.027046mm"
   viewBox="0 0 19.746389 17.027046"
   version="1.1"
   id="svg1"
   xmlns="http://www.w3.org/2000/svg"
   xmlns:svg="http://www.w3.org/2000/svg">
  <defs
     id="defs1" />
  <g
     id="layer1"
     transform="translate(-52.122917,-138.90625)">
    <g
       id="g19"
       transform="translate(37.240105,117.93802)">
      <path
         d="m 14.882812,23.138176 3.7726,5.4278 6.2916,-1.6808 -2.1303,-2.4469 2.2834,-0.5379 c 0.568,-0.1338 1.0754,-0.1395 1.5284,-0.0183 0.4601,0.1074 0.8563,0.3285 1.1929,0.6675 l 0.1276,0.1285 c 0.3336,0.3361 0.4563,0.6436 0.3617,0.9215 -0.0798,0.2782 -0.4109,0.4968 -0.9983,0.6537 l -2.3654,0.6319 2.753,3.1621 -6.5934,2.0453 4.1026,5.902699 7.0374,-2.7258 -4.5462,-5.221699 4.3671,-1.3547 c 1.0615,-0.3293 1.7944,-0.7964 2.2071,-1.3918 0.3856,-0.5866 0.4532,-1.2298 0.2199,-1.9242 -0.2247,-0.6689 -0.7126,-1.3216 -1.4516,-1.9612 l -0.2205,-0.1908 c -0.7087,-0.6133 -1.5234,-1.1026 -2.4496,-1.47743 -0.9218,-0.37788 -1.874,-0.61569 -2.8693,-0.71831 -1.0065,-0.11158 -1.9828,-0.07077 -2.9425,0.12586 z"
         style="font-size:25.4px;font-family:'Archivo Black';-inkscape-font-specification:'Archivo Black, Normal';white-space:pre;fill:#04046b;fill-opacity:0.995455;stroke-width:0.265"
         id="path13-2" />
    </g>
  </g>
</svg>
